<?xml version="1.0" encoding="utf-8"?>
<!-- Generator: Adobe Illustrator 26.5.3, SVG Export Plug-In . SVG Version: 6.00 Build 0)  -->
<svg version="1.1" id="Layer_1" xmlns="http://www.w3.org/2000/svg" xmlns:xlink="http://www.w3.org/1999/xlink" x="0px" y="0px"
	 viewBox="0 0 1008.6 143.8" style="enable-background:new 0 0 1008.6 143.8;" xml:space="preserve">
<style type="text/css">
	.st0{fill:#42170C;}
	.st1{fill:#EF4723;}
	.st2{fill:url(#SVGID_1_);}
	.st3{fill:url(#SVGID_00000110459054145551778140000013349808630251623085_);}
	.st4{fill:url(#SVGID_00000122712559543088964340000009357176723641313181_);}
	.st5{fill:url(#SVGID_00000117671122101454804190000001937883443816485518_);}
	.st6{fill:url(#SVGID_00000153682499574477645410000015635830374393215925_);}
</style>
<linearGradient id="SVGID_1_" gradientUnits="userSpaceOnUse" x1="-26.7887" y1="-183.7793" x2="836.1962" y2="229.4721">
	<stop  offset="0" style="stop-color:#40190F"/>
	<stop  offset="1" style="stop-color:#EF4823"/>
</linearGradient>
<path class="st2" d="M686.6,25.4c15.5,0.5,29.5,5.2,39.7,18.1c6.1,7.7,9,16.7,9.3,26.5c0.3,11.6-2.4,22.2-9.9,31.3
	c-8.3,10.1-19.3,15.6-32,16.7c-17.3,1.6-32.9-2.9-45.1-16.1c-7.1-7.7-10.4-16.9-10.7-27.4c-0.4-11.5,1.4-22.4,8.9-31.5
	C657,30.7,670.6,25.7,686.6,25.4z M668.8,71.7c-0.2,10.7,7,18.4,17.1,18.6c11.3,0.1,19.1-7.1,19.4-18c0.2-10.2-7.6-18.5-17.7-18.7
	C676.7,53.4,669,60.9,668.8,71.7z M744.1,115.4c0-29.2,0-58.5,0-88.2c1.8,0,3.6,0,5.3,0c13.5,0.2,27.1,0.1,40.6,0.7
	c19.3,0.7,34.8,11.6,40.6,28c6.4,18.1,1.7,37.9-11.9,49.2c-7.3,6.1-16,9.7-25.2,10.1C777.1,115.9,760.8,115.4,744.1,115.4z
	 M773.7,88.8c5,0,9.5,0.4,14-0.1c8.7-0.9,14.4-6.4,15.1-13.9c0.9-9.4-2.8-16.7-10.8-18.9c-5.8-1.6-12-1.8-18.4-2.6
	C773.7,65.7,773.7,77.1,773.7,88.8z M873.9,83.9c10.3,0,20.6,0,30.9,0c3.8,0,4.8-1,4.9-4.7c0-4.6,0-9.1,0-13.7
	c0-5.1-0.4-5.5-5.4-5.5c-9.9,0-19.9,0-29.8-0.1c-1.4,0-2.7,0-4.1,0c0-2.3,0-4.1,0-6.1c1.6,0,2.8,0,4.1,0c9.8,0,19.6,0,29.5,0
	c5.9,0,6.3-0.4,6.3-6.4c0-4.9,0-9.8,0-14.7c0-4-0.9-4.8-5-4.8c-20.5,0-40.9,0-61.4,0c-1,0-2,0.1-2.9,0.2c0,29.7,0,59,0,88.6
	c14.8,0,29.4,0,44,0c7.1,0,14.3,0,21.4,0c2.7,0,4-1.4,4-4.2c0-6.1,0-12.2,0-18.2c0-3-1.3-4.2-4.2-4.2c-8.7,0-17.3,0-26,0
	c-3.2,0-6.5,0-9.9,0c0-2.1,0-3.8,0-6.1C871.6,83.9,872.7,83.9,873.9,83.9z M953.5,57.3c-10.1,10.7-20.2,21.4-30.2,32.2
	c-1.3,1.4-2.4,3.5-2.6,5.3c-0.5,5.2-0.5,10.5-0.5,15.8c-0.1,5.4,0.4,5.9,5.7,5.9c21.5,0,43-0.1,64.5-0.1c0.8,0,1.6-0.1,2.4-0.2
	c0-9.2,0-18.1,0-27.3c-11.7,0-23.2,0-35.3,0c0.9-1.1,1.4-1.7,1.9-2.2c10.2-10.9,20.5-21.8,30.6-32.8c1.2-1.3,2.3-3.4,2.4-5.2
	c0.3-5.8,0-11.7,0.1-17.5c0-2.6-1.1-3.5-3.6-3.5c-21.5,0.1-43,0.1-64.5,0.1c-3.1,0-4.4,1.3-4.4,4.4c0.1,6.2,0,12.4,0,18.6
	c0,4.3,0.6,4.8,4.8,5c1.4,0.1,2.8,0.1,4.2,0.1c8.4,0,16.7,0,25.7,0C954,56.6,953.7,57,953.5,57.3z M630.1,30.7
	c0-2.6-1.9-3.6-4.3-3.5c-11.6,0.2-23.1,0.1-34.6,0.8c-10.9,0.7-20.6,4.7-28.3,12.8c-8.9,9.3-12.1,20.6-11.9,33.3
	c0.3,18.9,12.2,35.4,30.5,40.1c15.8,4,32,2.6,48.1,2.7c0.2,0,0.3-0.3,0.3-0.3c0-9.4,0-18.7,0-28.3c-9.5,0-18.7,0.1-28-0.1
	c-3.2-0.1-6.6-0.5-9.6-1.5c-7.2-2.5-11.2-9.7-10.4-17.9c0.6-6.5,5.5-11,13.4-12.1c2.9-0.4,5.8-0.7,8.7-0.7c8.5-0.1,17,0,26.1,0
	C630.1,47.2,630.1,38.9,630.1,30.7z M363.3,72.2c-0.5-25.6,19.2-42.1,39.7-44.9c14.3-1.9,27.9-0.1,39.4,9.2
	c15.4,12.4,19.8,28.9,15.6,47.7c-4.2,18.6-19.7,31.5-39.2,33.7c-8.7,1-17.3,0.4-25.5-2.7C373.7,108.1,363.3,93.1,363.3,72.2z
	 M395,72.6c0,10.6,6.6,17.4,16.8,17.4c9.4,0,16.4-7.2,16.3-16.9c-0.1-10.7-6.6-17.7-16.5-17.7C401.6,55.5,395,62.4,395,72.6z
	 M355.3,77.2c0.5,21.6-18.5,38.8-43.1,40.9c-14,1.2-26.7-2.1-37.5-11.3c-12.5-10.7-17.2-24.7-15.3-40.8
	c3.1-26.6,24.1-38.7,45.9-39.4c12.3-0.3,23.7,2.3,33.5,10C350.1,45.7,355.2,57.8,355.3,77.2z M324.3,72.4c0-10-7.4-17.5-17-17.4
	c-9.9,0.1-17.1,7.6-17.1,17.8c0,9.5,7.5,17.1,17,17.1C317.4,90,324.3,82.9,324.3,72.4z M256.7,112.4c-8-12.9-15.9-25.8-24.1-38.6
	c-1.6-2.5-1.1-4,0.3-6.1c8.1-11.7,16.2-23.4,24.2-35.2c0.7-1,1.3-2,2.3-3.6c-9.6,0-18.3,0.5-27-0.2c-6.6-0.5-10.6,1.6-13.8,7.5
	c-4.9,8.8-10.7,17.1-16.1,25.6c-0.2,0-0.4-0.1-0.7-0.1c0-10.9,0-21.7,0-32.6c-10.3,0-20.2,0-30.1,0c0,29,0,57.7,0,86.5
	c10,0,19.8,0,30,0c0-11.3,0-22.3,0-33.4c7,10.2,13.3,20.5,19.5,30.8c1.2,2,2.4,2.9,4.9,2.9c6.4-0.2,12.9-0.1,19.3-0.1
	c4.3,0,8.5,0,13.3,0C257.8,114.3,257.3,113.4,256.7,112.4z M533.1,115.6c0-8.3,0-16.5,0-25.2c-11.7,0-23.2,0-35,0
	c0-20.7,0-40.9,0-61.3c-10.2,0-20.1,0-30.3,0c0,28.8,0,57.5,0,86.5C489.7,115.6,511.4,115.6,533.1,115.6z M15.8,71.7
	c0.1-16.7,5.7-31.3,16.9-43.6c8.4-9.2,18.7-14.9,30.7-18C69.7,8.5,76,8,82.4,8.4c7,0.3,13.8,1.8,20.3,4.5
	c8.7,3.6,16.2,8.9,22.5,15.9c4.3,4.8,7.8,10.1,10.5,16c2.7,5.9,4.4,12.1,5.1,18.6c1,9.3,0.4,18.5-2.4,27.4
	c-3.8,12.2-10.5,22.4-20.3,30.6c-7.6,6.3-16.2,10.5-25.7,12.6c-5.2,1.2-10.5,1.7-15.9,1.5c-18.1-0.8-33.2-8-45.2-21.7
	c-7.4-8.5-12.1-18.3-14.3-29.3C16.2,80.3,15.8,76,15.8,71.7z M108.8,70.4c0.2,0,0.3,0,0.4,0c4.9-0.4,9.7-0.8,14.6-1.2
	c3.3-0.3,6.5-0.5,9.8-0.8c0.8-0.1,1.2-0.6,1.1-1.4c-0.3-3.9-0.9-7.7-2-11.5c-5.5-19.4-21.2-34.4-40-39c-6.4-1.6-12.9-2.1-19.5-1.5
	c-5.3,0.5-10.4,1.8-15.4,3.8c-11.4,4.7-20.6,12.1-27,22.6c-5.1,8.2-7.9,17.2-8.4,26.9c-0.4,6.7,0.3,13.3,2.2,19.7
	c1.8,6.1,4.5,11.6,8.1,16.8c0.5,0.7,1,1.4,1.4,2.1c0-0.7-0.2-1.2-0.4-1.8c-1-4.2-1.7-8.4-2-12.7c-0.3-4.1,0-8.1,0.9-12.1
	c0.8-3.8,2.3-7.4,4.2-10.8c0.8-1.5,1.5-3.2,2-4.9c1.6-6.7,5.2-12.2,10.8-16.2c1.9-1.3,3.7-2.7,5.1-4.5c2.3-2.9,5-5.4,8.1-7.4
	c4.1-2.7,7.7-5.9,10.5-10.1c1.3-1.9,2.8-3.7,4.9-5c4.3-2.7,9.2-2.6,13,1.4c1.7,1.8,2.9,3.9,3.9,6.2c0.5,1.2,1.1,2.4,1.9,3.4
	c1.7,2.2,2.3,4.5,1.5,7.2c-0.7,2.5-0.6,2.7,1.4,4.3c2.2,1.7,4.1,3.7,5.5,6.1c3.1,5.1,3.5,10.7,3.6,16.4
	C108.8,67.8,108.8,69.1,108.8,70.4z M135.8,70.5c-1,0.1-1.7,0.1-2.5,0.2c-7.7,0.7-15.4,1.4-23.2,2.1c-4,0.4-8.1,0.7-12.1,1.1
	c-1,0.1-1.4,0.4-1.6,1.4c-0.9,3.5-1.8,7-2.6,10.4c-1.9,7.3-3.7,14.7-5.6,22.1c-0.2,0.7,0,0.9,0.7,0.8c1.1-0.1,2.2-0.2,3.2-0.3
	c5.1-0.6,10.2-1.2,15.3-1.8c6.2-0.7,12.3-1.5,18.5-2c3.6-0.3,3-1,3.8-3.3c0,0,0-0.1,0-0.1c1.9-7.3,3.8-14.6,5.7-21.9
	c0.6-2.2,1.1-4.4,1.6-6.6C137.4,71.2,136.8,70.5,135.8,70.5z M50.8,95.1c0,0,0,0.1,0,0.1c0.8,0.2,1.7,0.5,2.5,0.5
	c2.9,0.1,5.8,0.1,8.7,0.2c1,0.1,2.1,0.4,3,0.7c0.8,0.3,1.5,0.8,2.2,1.3c1.5,1,3.1,1.1,4.8,0.4c0.5-0.2,0.9-0.4,1.2-0.5
	c2,1.7,3.9,3.4,5.7,4.9c0.9-3.5-1.1-6.1-3.9-8.4c1.1,0.2,2.2,0.4,3,1c1.9,1.2,2.5,3.1,2.5,5.3c0,1.1,0.6,1.8,1.5,1.8
	c0.6,0,1.2-0.8,1.1-1.8c-0.2-3-1.3-5.5-3.7-7.5c-0.2-0.2-0.5-0.4-0.7-0.6c0-0.1,0.1-0.1,0.1-0.2c0.8,0.4,1.7,0.7,2.3,1.2
	c1.8,1.6,3.2,3.5,3.5,6.1c0.1,0.6,0.4,1.2,0.8,1.7c0.6,0.7,1.6,0.5,1.8-0.4c0.1-0.5,0.2-1.1,0.1-1.6c-0.3-2.1-1.5-3.7-2.8-5.4
	c-0.4-0.5-0.7-1-1.1-1.4c0.1-0.1,0.1-0.1,0.2-0.2c2.2,1.3,3.7,3.2,4.8,5.5c0.3-0.7,0.4-1.4,0.6-2c0.2-0.5,0.1-0.8-0.2-1.2
	c-1.3-1.4-2.5-2.9-3.9-4.3c-0.8-0.9-1.8-1.7-3-1.8c-1.9,0-3.8,0.2-5.7,0.3c-0.6,0-1.2,0.2-1.8,0.1c-2.9-0.5-5.7-1.4-8.4-2.6
	c-2.6-1.2-5.1-2.5-7.6-3.8c0,0,0-0.1,0-0.2c2.3-0.6,4.1-2,5.5-3.9c4.2-5.5,5.7-11.7,4.8-18.5c-0.1-0.6-0.2-1.1-0.3-1.7
	c0.3,0.1,0.4,0.3,0.5,0.5c2.7,3.8,3.8,8.1,4,12.7c0.1,1.6,0.8,2.7,1.9,3.7c1.2,1,2.2,0.7,2.6-0.9c0.8-3.1,0.7-6.3-0.1-9.4
	c-1.1-4.4-3.4-8.1-6.4-11.5c-2.8-3.1-4.4-6.6-4-10.9c0-0.1,0-0.3-0.1-0.4c-0.1,0-0.2,0-0.3,0c0,1.9,0,3.7,0,5.6
	c-1.5-2.6-1.4-5.3-1.4-8.1c-1.5,2.2-3.6,3.6-5.9,4.6c0.8-1.3,1.7-2.5,2.5-3.8c-0.1,0-0.1-0.1-0.2-0.1c-3.2,1.8-5.3,4.6-7.3,7.9
	c2.3-1.1,4.4-2.1,6.6-3.1c-0.1,0.4-0.4,0.7-0.6,1c-1.6,1.5-3.2,3-5,4.3c-5.5,4.1-9,9.5-10,16.4c-0.2,1.1-0.1,2.2-0.2,3.4
	c0.7-2.4,1.3-4.7,2-6.9c0.6-2,2.7-4.6,4.3-5.3c-0.7,1.8-1.6,3.6-2.1,5.6c-0.6,1.9-0.9,3.9-1.2,5.9c-0.3,1.7,0,5.2,0.6,5.9
	c-0.2-4,0.5-7.8,2.3-11.5c-0.4,6.6-0.1,13.1,4,18.8c-0.2,0-0.4,0.1-0.6,0.1c-1.7,0.3-3.3,0.9-4.6,2.2c-0.9,1-1,2-0.4,3.1
	c0.8,1.3,1.9,2.2,3.2,2.8c0.2,0.1,0.4,0.2,0.6,0.3c0,0.1-0.1,0.2-0.1,0.3c-2.3-0.4-4.6-0.8-7.1-1.2c0.9,0.5,1.6,1,2.4,1.4
	c2.6,1.3,5.4,1.6,8.3,1.8c0.6,0,1.2,0.1,1.8,0.2c0,0.1,0,0.2,0,0.3c-1.3,0.3-2.6,0.6-3.8,0.8C53.4,94.9,52.1,95,50.8,95.1z M98.6,46
	c-0.1,1.8-0.3,3.4-0.4,5c-0.7,7.6-3.9,13.8-9.7,18.7c-1.6,1.4-3.5,2.6-5.3,3.8c-1,0.7-1.2,1.1-0.9,2c2-0.1,3.7-1.1,5.4-1.9
	c0,0.1,0.1,0.2,0.1,0.3c-1.8,1.1-3.6,2.3-5.5,3.5c0.4,0.6,0.9,0.4,1.3,0.2c2.4-0.8,4.7-2,6.7-3.6c0.2-0.1,0.4-0.2,0.6-0.3
	c0.1,0.1,0.1,0.2,0.2,0.3c-2.6,2-5.1,4-7.7,6.1c0.8,0.5,1.5,0.1,2.1-0.2c5.8-3.2,9.9-8,12.4-14.1c0.8-1.9,1.4-3.9,2.1-6
	c0.2,1.2,0.5,2.3,0.4,3.3c-0.2,2.5-0.5,4.9-0.8,7.3c-0.1,0.6,0.1,0.8,0.7,0.8c1.3-0.1,2.6-0.3,4-0.3c0.6,0,0.8-0.2,0.8-0.8
	c0.1-2.8,0.4-5.7,0.4-8.5c0-3.2-0.6-6.4-2-9.3C102.5,49.7,100.8,47.6,98.6,46z M78.9,46.9c0.7-1.2,0.9-2.1,0.2-3.1
	c-0.5-0.7-0.9-1.5-1.2-2.3c-0.5-1.3-0.5-2.6,0.4-3.8c1-1.2,2.4-1.3,3.8-1c1.4,0.3,2.7,0.8,4,1.2c2,0.6,3.9,0.8,5.7-0.5
	c1.2-0.8,2.6-1.3,4.3-0.8c-0.1-0.7-0.1-1.3-0.4-1.8c-0.9-1.5-1.8-3-2.9-4.4c-1.4-1.7-2.9-3.3-4.3-4.9c0-0.1,0.1-0.2,0.1-0.2
	c0.8,0.4,1.5,0.8,2.2,1.1c-1-2.8-3.7-4.8-7.4-4.7c-3.2,0-7.3,3.5-7.9,6.3c1.4-1,2.8-2.2,4.4-3.1c1.7-0.9,3.5-1.1,5.5-0.3
	c-3.1,0.9-6.2,4.2-6.2,6.2c0.8-0.1,1.6-0.3,2.3-0.2c1.3,0.3,2.6,0.6,3.8,1.2c1.2,0.5,2.3,0.9,3.7,0.8c0.5,0,0.9,0,1.4,0
	c-0.3,0.3-0.6,0.4-1,0.5c-2,0.7-4,0.4-5.9,0c-1.7-0.4-3.1-0.1-4.4,1.1c-1.7,1.6-2.9,3.5-3.6,5.7c-0.9,3,0,6.3,2.1,8.1
	c-0.2-1.4-0.4-2.9-0.6-4.4c0.1,0,0.1,0,0.2,0C77.8,44.7,78.3,45.7,78.9,46.9z M95.8,53.2c0.5-2,0.2-3.9-0.3-5.7
	c-0.1-0.6-0.2-1.2-0.1-1.8c0.1-1.1,0.3-2.2,0.5-3.3c-0.7,0.4-1.3,0.7-1.6,0.9c-0.9-0.4-1.6-0.9-2.3-1C90,42.1,88,42,86.1,42.7
	c-0.8,0.3-1.7,0.2-2.6,0.3c-0.3,0-0.6,0-0.9-0.1c0,0.1-0.1,0.2-0.1,0.3c0.9,0.4,1.8,0.7,2.8,1.1c-0.4,0.9-1,1.8-1.4,2.7
	c-0.6,1.3-1.3,2.5-1.5,3.9c-0.5,2.5,0.3,5.6,3.7,6.7c1.2,0.4,2.6,0.4,3.8,0.4c1.4,0,2.6-0.5,3.7-1.3c0.7-0.6,1.3-1.3,1.6-2.3
	c-2-0.9-4.1-0.8-6.1-0.5c-1.3,0.2-2.6,0.5-3.9-0.1C88.7,53,92.1,52,95.8,53.2z M84.2,103.9c-0.9,1.2-1.7,1.4-3.2,1
	c-0.2-0.1-0.6,0-0.8,0.1c-1.4,0.9-2.5,0.9-3.8-0.2c-0.5-0.5-1-1-1.5-1.5c-0.2-0.2-0.6-0.3-0.9-0.3c-1.6,0.1-3.3,0.3-4.9,0.5
	c-1.3,0.1-2.5,0.3-3.8,0.5c-0.2,0-0.4,0.3-0.6,0.5c0.2,0.2,0.3,0.4,0.5,0.5c0.1,0.1,0.3,0.1,0.5,0.1c4.1,0.9,8.1,1.8,12.1,2.8
	c2.2,0.5,4.3,1,6.5,1.6c0.6,0.1,1.2,0.1,1.3-0.5c0.4-1.6,0.8-3.2,1.2-4.7C85.9,104.2,85.1,104,84.2,103.9z M58.6,103.5
	c0.1,0.3,0.3,0.5,0.4,0.8c1.3,2.6,2.4,5.2,3.1,8.1c0.5,2.5,0.3,4.8-1.1,6.9c-0.1,0.1-0.2,0.3-0.3,0.5c0.2-0.1,0.3-0.1,0.4-0.2
	c3.2-1.7,4.4-5.8,2.8-9.2C62.6,107.7,60.5,105.7,58.6,103.5z M42.4,85.4c-2.1,2-4.8,11-4.7,13.4C39.6,94.3,41.5,90,42.4,85.4z
	 M40.8,108.2c0.1,0,0.2,0,0.3,0.1c0.7-2.7,1.4-5.4,2.1-8.1c0.3-1,0.4-2.1,0-3.2C41.9,100.7,41.1,104.4,40.8,108.2z M41.3,82.4
	c-0.1,0-0.2-0.1-0.3-0.1c-2.3,3.3-3.6,6.9-4,10.9c0.1,0,0.1,0.1,0.2,0.1C38.5,89.6,39.9,86,41.3,82.4z M43.6,69.2
	c1-3.8,1.9-7.8,2.9-11.8C44.6,59.9,43.1,66.2,43.6,69.2z M45.3,99.6c-0.9,1.4-2.4,8.9-2,10.2C43.9,108.6,45.5,100.8,45.3,99.6z
	 M39.3,102.6c0.1,0,0.2,0,0.2,0c0.9-3.6,1.9-7.2,2.8-10.8c-0.1,0-0.2,0-0.3-0.1C40.7,95.3,39.6,98.8,39.3,102.6z M71.2,38.6
	c-0.2-2.8,0.1-3.5,2.9-4.1c-0.3-0.3-0.5-0.7-0.8-0.8c-0.7-0.3-1.7,0-2.3,0.7C70.1,35.5,70.1,37.3,71.2,38.6z M35.3,86
	c0.1,0,0.2,0,0.3,0.1c0.7-3.4,1.4-6.8,2.1-10.1c-0.1,0-0.2,0-0.3-0.1C36.3,79.1,35.6,82.5,35.3,86z M47,103.3c-0.1,0-0.2,0-0.3-0.1
	c-0.3,1.7-0.7,3.4-1,5c0.1,0,0.2,0,0.3,0.1C46.4,106.7,46.7,105,47,103.3z M47.2,110.6c0.1,0,0.2,0,0.3,0.1c0.2-1.1,0.5-2.3,0.7-3.4
	c-0.1,0-0.2,0-0.3-0.1C47.7,108.3,47.5,109.5,47.2,110.6z M109.6,97.5c0.6,0.1,0.9-0.1,1.2-0.7c2.1-4.4,4.2-8.7,6.3-13.1
	c0.7-1.5,1.5-3.1,2.3-4.8c-0.6,0-1.1,0.1-1.6,0c-0.6-0.1-0.8,0.1-1.1,0.6c-1.3,2.8-2.7,5.6-4.1,8.5c-1.5,3.1-3,6.2-4.6,9.4
	C108.6,97.4,109.1,97.4,109.6,97.5z M107.5,92.4c0.2-0.4,0.2-0.7-0.1-1c-0.8-0.8-1.5-1.7-2.3-2.5c1.3-0.9,2.4-1.7,3.6-2.5
	c1.5-0.8,1.5-2.3,2-3.7c-3,2.1-6.1,4.1-9.2,6.2c1.7,1.9,3.4,3.6,5.1,5.4C106.9,93.6,107.2,93,107.5,92.4z M120.2,82.8
	c-0.3,0.7-0.5,1.2-0.7,1.7c-0.3,0.5-0.1,0.9,0.2,1.3c0.7,0.8,1.4,1.5,2.2,2.4c-1.4,0.9-2.6,1.8-3.9,2.6c-1.6,0.9-1.6,2.6-2.2,3.9
	c3.1-2.1,6.3-4.3,9.5-6.5C123.6,86.4,121.9,84.6,120.2,82.8z M93.9,44.5c-0.4,0-0.7-0.1-1.1-0.1c-1.7,0.4-3.4,0.6-5.2,0.4
	c-0.8-0.1-1.2,0.4-1,1.2c0.2,0.4,0.5,0.9,0.9,1.1c0.5,0.3,1.2,0.4,1.8,0.6c0.6,0.2,0.8-0.1,0.8-0.7c0-0.3,0.1-0.7,0.2-1
	c0.1,0,0.2,0,0.3,0c0.1,0.5,0.2,1,0.4,1.6C92.5,47.6,93.6,46.5,93.9,44.5z M93.9,39.9l26.3,29.5l11.5-1L94.6,39.8L93.9,39.9z
	 M83.8,40.7l14.7,30.6l10.4-0.9L84.5,40.7H83.8z"/>
</svg>
